<mxfile host="app.diagrams.net" modified="2024-01-18T06:27:26.593Z" agent="Mozilla/5.0 (Windows NT 10.0; Win64; x64) AppleWebKit/537.36 (KHTML, like Gecko) Chrome/120.0.0.0 Safari/537.36" version="22.1.21" etag="IqhYgaekbFsf2bETyyDa" type="github">
  <diagram name="Page-1" id="pSBvFk2BeY6s0IXey9MD">
    <mxGraphModel>
      <root>
        <mxCell id="0" />
        <mxCell id="1" parent="0" />
      </root>
    </mxGraphModel>
  </diagram>
</mxfile>
